<svg width="459" height="146" viewBox="0 0 459 146" fill="none" xmlns="http://www.w3.org/2000/svg">
<path d="M344 14.5H302.5V123.5H337V70.5L353.5 123.5H383L399.5 70.5V123.5H434V14.5H392.5L368.5 80L344 14.5Z" fill="#383434" stroke="#383434"/>
<path d="M0.5 123.5V15H77.5V41.5H34V57H65.5V82.5H34V123.5H0.5Z" fill="#383434" stroke="#383434"/>
<path d="M331.5 11L321.5 0.5H458V136.5L437.5 116.5V11H390L374.5 53L354.5 33.5L346 11H331.5Z" fill="#26619C" stroke="#26619C"/>
<path d="M87 123V14H121.5V123H87Z" fill="#26619C" stroke="#26619C"/>
<path d="M126 43.5V14C175.63 14.2696 192.96 33.7396 193 68C192.811 100.437 177.179 124.49 126 123V93.5C148.613 92.3901 157.404 88.3679 158 68C157.189 45.7042 147.357 43.6316 126 43.5Z" fill="#383434" stroke="#383434"/>
<path d="M238.5 45C238.695 40.2523 240.263 38.6262 245 38.5C250.303 38.783 251.009 41.7936 252 47.5H287.5C283.53 23.75 276.938 12.338 245 12.5C217.968 13.3315 202.833 17.5223 202.5 45C203.697 60.2859 207.803 67.4714 225.5 76.5C238.787 81.8624 251.717 84.272 252.5 91C252.907 95.7466 251.686 97.5129 246 98.5C240.788 97.5672 238.733 96.0627 238.5 89.5H202.5C202.213 95.1954 202.963 98.6627 206.5 105.5C217.797 120.865 229.037 125.431 248 125.5C260.598 125.427 266.57 123.391 273.5 118C285.768 107.27 288.378 101.511 289.5 91C288.147 76.4325 283.275 69.8571 268.5 62C261.367 58.6674 244.848 51.2875 245 51.5C241.629 49.6993 239.189 48.3411 238.5 45Z" fill="#383434" stroke="#383434"/>
<path d="M242.5 131H1V145.5H226.5L242.5 131Z" fill="#383434" stroke="#383434"/>
<path d="M233.5 145.5L250 131L441.5 130.5L457.5 145.5H233.5Z" fill="#26619C" stroke="#17345F"/>
</svg>
