<svg width="504" height="148" viewBox="0 0 504 148" fill="none" xmlns="http://www.w3.org/2000/svg">
<path d="M322 125V60L353 90.7634V125H322Z" fill="#26619C" stroke="#26619C"/>
<path d="M151.5 1H109.5L207.5 99V68.5L274 1H232L191.5 41L151.5 1Z" fill="#383434" stroke="#383434"/>
<path d="M176 125V83.5L207 114V125H176Z" fill="#26619C" stroke="#26619C"/>
<path d="M276 30.6954V1H399V30.6954H352.812V77L321.686 46.298V30.6954H276Z" fill="#383434" stroke="#383434"/>
<path d="M1 4.5V1H107.5V31.5H30.5V34L1 4.5Z" fill="#26619C" stroke="#26619C"/>
<path d="M1 124.5V19L30.5 48.5H73V77.5H32V124.5H1Z" fill="#383434" stroke="#383434"/>
<path d="M401 41.5V1H503.5V32H434.5L450 48H503.5V78H437L401 41.5Z" fill="#383434" stroke="#383434"/>
<path d="M400.5 124.5V55.5L430.5 85.5V95H503V124.5H400.5Z" fill="#26619C" stroke="#26619C"/>
<path d="M242.5 133H1V147.5H226.5L242.5 133Z" fill="#383434" stroke="#383434"/>
<path d="M234 147.5H503V133H250L234 147.5Z" fill="#26619C" stroke="#26619C"/>
</svg>
